<svg xmlns="http://www.w3.org/2000/svg" width="45" height="45" viewBox="0 0 45 45">
  <g id="MDI_arrow-left-thin-circle-outline" data-name="MDI / arrow-left-thin-circle-outline" transform="translate(-0.5 -0.5)">
    <g id="Boundary" transform="translate(0.5 0.5)" fill="#f8991d" stroke="rgba(0,0,0,0)" stroke-width="1" opacity="0">
      <rect width="45" height="45" stroke="none"/>
      <rect x="0.5" y="0.5" width="44" height="44" fill="none"/>
    </g>
    <path id="Path_arrow-left-thin-circle-outline" data-name="Path / arrow-left-thin-circle-outline" d="M35.8,20.453a15.055,15.055,0,0,1-30.107,0,15.055,15.055,0,0,1,30.107,0m3.693,0A18.561,18.561,0,0,0,20.746,2,18.561,18.561,0,0,0,2,20.453,18.561,18.561,0,0,0,20.746,38.907,18.561,18.561,0,0,0,39.493,20.453M23.633,18.608V13.072l7.424,7.381-7.424,7.381V22.3h-13.2V18.608" transform="translate(1.687 2.213)" fill="#f8991d"/>
  </g>
</svg>
